# xmcd CD database file
#
# Track frame offsets:
#	150
#	15767
#	37730
#	63437
#	81350
#	98680
#	116547
#	135812
#	157002
#	173402
#
# Disc length: 2523 seconds
#
# Revision: 0
# Processed by: cddbd v1.5.2PL0 Copyright (c) Steve Scherf et al.
# Submitted via: CDex 1.70beta3
#
DISCID=6309d90a
DTITLE=Various Artist - Jazz West Coast Vol. 5
DYEAR=1900
DGENRE=Jazz
TTITLE0=Powder Puff - Art Pepper Nine
TTITLE1=You're Driving Me Crazy - Zoot Sims - Russ Freeman Quintet
TTITLE2=Stomping At The Savoy - The Mastersounds
TTITLE3=Hot Doddy - Freddie Gambrell Quartet
TTITLE4=It's All Right With Me - Buddy Bregman Band
TTITLE5='Round About Midnight - Bud Shank Quartet
TTITLE6=Joe's Tune - Paul Horn Four
TTITLE7=Invitation To The Blues - Russ Freeman Quartet
TTITLE8=''A'' Train and Perdido - Chico Hamilton Quintet
TTITLE9=Airegin - Lambert, Hendricks and Ross
EXTD=
EXTT0=
EXTT1=
EXTT2=
EXTT3=
EXTT4=
EXTT5=
EXTT6=
EXTT7=
EXTT8=
EXTT9=
PLAYORDER=
